<svg width="635" height="635" fill="none" xmlns="http://www.w3.org/2000/svg"><g style="mix-blend-mode:overlay" fill="#000"><path d="M528.184 553.764l-.59-.688 1.18-1.378-6.198-6.985.393 2.755.296 8.461.295.393 1.377-.885.591.689-3.838 3.443-.59-.689.984-1.18-7.674-8.757-1.279.886-.59-.689 3.935-3.443.59.688-1.082 1.181 6.297 7.084-.394-2.558-.295-8.658-.492-.492-1.476.984-.59-.689 3.935-3.444.591.689-1.083 1.181 7.675 8.756 1.279-.787.59.689-3.837 3.443zm-9.642 7.969c-.394.492-.689.788-.984 1.083-.295.295-.59.59-.885.787-1.181.984-2.263 1.574-3.247 1.672-.984.099-1.771-.196-2.46-1.082-.59-.787-.885-1.574-.787-2.46.099-.885.492-1.672 1.083-2.361-.886.689-1.771.984-2.657.984-.885-.098-1.574-.492-2.164-1.181-.886-1.082-1.181-2.066-.984-3.148.196-1.082.984-2.164 2.361-3.345.59-.492 1.181-.886 1.673-1.082a6.8 6.8 0 011.279-.591c.295-.098.491-.196.59-.196l1.771 2.754-.689.591-1.968-1.574c-.688.098-1.377.492-2.262 1.18-.689.492-.984 1.082-.984 1.771 0 .689.295 1.378.885 2.165.492.59 1.082.983 1.771 1.082.689.098 1.476-.197 2.361-.886l.984-.787.689.787-.886.689c-.393.295-.688.689-.983 1.181a3.946 3.946 0 00-.296 1.476c.099.491.296 1.082.689 1.574.492.688 1.082.984 1.673.984.59 0 1.18-.296 1.869-.788.394-.393.787-.688.984-1.082.197-.393.295-.688.295-.885l-.787-1.574.885-.787 1.968 2.164a10.58 10.58 0 00-.787.885zm-13.282 9.249l1.377-.689.591.787-2.066 1.476c-.296.295-.787.59-1.279.984-.492.393-.787.688-.984.885-1.378.984-2.558 1.476-3.444 1.476-.885 0-1.672-.394-2.263-1.279-.492-.689-.787-1.476-.688-2.263 0-.787.393-1.574.984-2.164-.984.688-1.87 1.082-2.755.983-.886-.098-1.673-.491-2.263-1.377-.787-.984-.984-2.066-.689-3.247.295-1.18 1.181-2.361 2.853-3.542a6.576 6.576 0 011.083-.688c.787-.492 1.279-.886 1.475-.984l1.968-1.476.492.787-1.181 1.082 6.789 9.249zm-10.134-7.281c-.984.787-1.574 1.476-1.771 2.263-.196.787.099 1.476.591 2.263.59.787 1.18 1.181 1.869 1.279.689.098 1.476-.197 2.361-.886.984-.787 1.673-1.18 1.968-1.475l-3.247-4.526c-.393.098-.885.492-1.771 1.082zm4.723 5.018l-.787.59c-.689.492-1.083 1.082-1.181 1.771-.098.689.098 1.377.689 2.066.492.689 1.082 1.082 1.672 1.181.591.098 1.378-.197 2.263-.886.394-.295.689-.59 1.082-.885l.296-.295-3.05-4.231c-.197.197-.492.394-.984.689zm-7.182 12.594l-1.673 1.18-10.921-8.264-1.082.492-.492-.787 4.132-2.755.492.787-1.18.984 2.262 1.869 4.526-3.05-.787-2.755-1.476.689-.492-.787 3.739-2.46.492.787-.886.788 3.346 13.282zm-2.558-1.87l1.279 1.082-.591-1.672-1.771-6.002-3.935 2.657 5.018 3.935zm-13.971-3.345c1.18 0 2.164.295 3.148.984a8.067 8.067 0 012.558 2.853c.689 1.181 1.082 2.361 1.181 3.64a5.471 5.471 0 01-.787 3.345c-.591.984-1.378 1.87-2.46 2.558-.787.492-1.869.984-3.149 1.378l-.59.197-1.574-2.952 1.082-.689 1.673 1.771c.197 0 .59 0 .984-.098.393-.099.885-.394 1.475-.689a3.471 3.471 0 001.476-1.672c.295-.689.394-1.575.197-2.46a10.27 10.27 0 00-1.181-2.952c-.59-.983-1.279-1.869-2.066-2.459-.787-.591-1.574-1.083-2.361-1.181-.787-.098-1.673 0-2.46.492-.59.295-.983.689-1.18.885-.197.197-.394.591-.492.886l.295 1.968-1.082.492-.984-2.46c.197-.098.492-.394.885-.787a4.66 4.66 0 01.984-.984c.295-.295.787-.59 1.279-.885.886-.788 1.968-1.181 3.149-1.181zm-9.839 17.709c-.098 1.083-.394 2.165-.885 2.952-.591.886-1.279 1.574-2.165 1.968-1.082.59-2.164.787-3.148.689-.984-.099-1.968-.492-2.853-1.181a7.474 7.474 0 01-2.263-2.853c-.689-1.378-1.083-2.657-1.181-3.837-.098-1.279.197-2.362.689-3.345.492-.984 1.279-1.673 2.263-2.263 1.082-.591 2.164-.886 3.246-.787 1.083.098 1.968.491 2.854 1.082a7.481 7.481 0 012.262 2.853l2.657-1.377-2.558-4.821-1.476.59-.394-.787 4.526-2.46.394.787-1.279.886 5.509 10.232 1.378-.492.393.787-4.427 2.361-.394-.787 1.279-.885-2.361-4.428-2.656 1.476c.393 1.378.59 2.558.59 3.64zm-1.771 1.378c.099-1.279-.295-2.755-1.279-4.624-.885-1.574-1.869-2.755-2.951-3.345-1.083-.591-2.165-.689-3.346-.099-1.082.591-1.574 1.476-1.672 2.657-.099 1.18.393 2.755 1.377 4.624.886 1.574 1.771 2.755 2.853 3.345 1.083.689 2.165.689 3.149.098 1.18-.492 1.771-1.377 1.869-2.656zm-18.988 3.345c-.689-.394-1.673-.886-2.755-1.574-.787-.492-1.279-.886-1.673-1.083-.393-.196-.688-.295-.885-.295l-.689.099-.393-.787 2.066-.984c.295-.099.688 0 1.18.295s1.279.787 2.165 1.476a26.66 26.66 0 002.558 1.672c.59.394 1.082.492 1.476.295l1.082-.492-2.263-4.821-1.574.492-.394-.787 4.624-2.164.394.885-1.279.787 4.919 10.528 1.476-.394.394.886-4.526 2.066-.394-1.082 1.279-.886-2.263-4.919-1.475.688-1.181 6.494 1.476-.492.393.885-4.132 1.968-.394-.885 1.28-.787 1.377-6.691c-.492.099-1.181-.098-1.869-.393zm-9.15-1.87c1.082.197 1.967.689 2.755 1.575.787.787 1.475 1.869 2.066 3.148a7.592 7.592 0 01.688 3.837 6.679 6.679 0 01-1.082 3.148c-.689.886-1.476 1.575-2.656 2.067-1.771.787-3.444.787-4.821 0-1.378-.788-2.558-2.067-3.345-4.133-.591-1.377-.787-2.656-.689-3.837.098-1.279.492-2.263 1.082-3.246.689-.886 1.574-1.575 2.657-2.067 1.18-.492 2.262-.688 3.345-.492zm3.542 10.233c.196-1.279 0-2.755-.787-4.723-.689-1.771-1.575-2.951-2.657-3.739-1.082-.787-2.164-.885-3.247-.393-1.082.492-1.771 1.279-1.967 2.558-.197 1.279 0 2.853.787 4.722.688 1.771 1.574 2.952 2.656 3.641.984.688 2.066.885 3.247.393 1.082-.295 1.771-1.18 1.968-2.459zm-11.02 5.804l1.476-.295.295.886-2.361.885c-.393.099-.885.394-1.476.591-.59.295-.984.393-1.18.492-1.575.59-2.854.787-3.739.491-.885-.295-1.476-.885-1.869-1.869a3.897 3.897 0 01-.099-2.361c.197-.689.787-1.378 1.574-1.87-1.082.394-2.066.492-2.951.197-.886-.295-1.476-.984-1.771-1.869-.394-1.181-.394-2.263.197-3.345.59-1.082 1.771-1.968 3.738-2.657.394-.196.787-.295 1.279-.393.886-.295 1.476-.492 1.673-.492l2.361-.886.295.886-1.377.689 3.935 10.92zm-7.772-9.74c-1.181.394-1.968.984-2.263 1.673-.394.688-.394 1.476 0 2.361.295.886.787 1.476 1.377 1.673.591.196 1.476.196 2.46-.197 1.181-.394 1.968-.689 2.263-.886l-1.869-5.214c-.394 0-.984.197-1.968.59zm3.247 6.1l-.984.394c-.787.295-1.378.787-1.574 1.377-.197.59-.197 1.377.098 2.165.295.787.689 1.377 1.279 1.574.59.197 1.377.197 2.361-.197.394-.197.886-.295 1.279-.59l.394-.197-1.771-4.919c-.295.098-.59.196-1.082.393zm-23.121 13.873l-.295-.886 1.475-.688-3.345-11.118-1.771.295-.295-.885 5.018-1.476.295.885-1.476.591 3.345 11.216 5.707-1.673-3.345-11.216-1.673.295-.295-.885 5.018-1.476.295.885-1.378.591 3.345 11.117 1.575-.196.295.885-12.495 3.739zm-7.674-11.61c.984.394 1.869.984 2.558 1.968.689.885 1.18 2.066 1.574 3.443.295 1.378.394 2.657.098 3.837-.295 1.181-.787 2.165-1.574 2.952a6.473 6.473 0 01-2.853 1.673c-1.869.491-3.444.196-4.723-.689-1.279-.984-2.164-2.46-2.754-4.624-.394-1.378-.394-2.755-.099-3.936.295-1.18.787-2.263 1.574-3.05a6.284 6.284 0 012.952-1.672c1.181-.295 2.263-.295 3.247.098zm2.066 10.626c.393-1.181.393-2.755-.099-4.723-.491-1.771-1.18-3.148-2.066-4.034-.885-.885-1.967-1.18-3.148-.885-1.181.295-1.968 1.082-2.361 2.263-.394 1.181-.394 2.853.098 4.821.492 1.869 1.082 3.148 2.066 4.034.886.885 1.968 1.18 3.149.885 1.082-.492 1.869-1.181 2.361-2.361zm-16.037-2.853c-.098-1.771 0-3.05.393-4.034.197-.492.394-.886.689-1.181a2.344 2.344 0 011.082-.59c.591-.099.984-.197 1.279-.197l.394 1.476c-.295 0-.787.098-1.377.197-.197 0-.394.098-.591.295-.197.197-.295.393-.393.59-.689 1.673-.492 4.723.393 9.15l.295 1.476 2.165-.197.197.885-10.626 2.165-.197-.886 1.673-.59-2.263-11.413-1.869.197-.197-.885 5.608-1.083.197.886-1.87.59 2.263 11.413 3.739-.787-.295-1.673c-.296-2.164-.591-4.132-.689-5.804zm-9.74 9.543h1.574l.098.886-9.445 1.475-.689-2.853 1.083-.197.787 1.673 4.624-.59-.787-5.215-3.05.492v1.574l-.984.197-.689-4.231.984-.196.492 1.574 3.05-.394-.886-5.509-5.214.984-.59 2.459-1.181-.197v-3.345l10.232-1.574.099.886-1.476.393 1.968 11.708zm-15.348 2.361l3.148-.492.197-3.935 1.18-.098.295 5.017-11.609 1.279-.787-4.919 1.18-.098 1.083 3.837 3.246-.296-1.377-11.707-2.656.098-.099-.886 7.084-.787.098.886-2.361.492 1.378 11.609zm-15.25-5.411l.885-.098c.295-.197.59-.689.787-1.279.197-.59.59-1.378.886-2.263.295-.886.59-1.574.787-2.066.196-.492.393-.689.59-.689l2.558-.197.098.886-.688.295c-.197.098-.394.197-.591.59-.196.295-.492.886-.787 1.574-.393.886-.688 1.575-.984 2.067-.295.59-.59.885-.983 1.18.885.197 1.574.591 2.066 1.181.492.59.787 1.377.885 2.361.099 1.476-.295 2.558-1.082 3.149-.886.59-2.066.983-3.739 1.082h-2.755l-2.656.197-.098-.886 1.574-.295-.787-11.61-1.771-.098-.099-.886 5.51-.393.098.885-1.771.296.394 4.919 1.673.098zm-.788 6.887h1.476c.984-.098 1.673-.295 2.165-.787.492-.492.688-1.18.59-2.263-.098-.984-.393-1.771-.984-2.263-.59-.492-1.279-.688-2.263-.688-.984.098-1.672.098-1.967.196l.393 5.707.59.098zm-10.822.492l3.247-.197.492-3.935h1.279l-.197 5.017-11.609.296-.394-5.018h1.181l.688 3.935h3.247l-.394-11.806-2.656-.098v-.886l7.182-.197v.886l-2.459.295.393 11.708zm-15.643-12.003c.983.59 1.672 1.476 2.164 2.558.492 1.082.689 2.361.689 3.837 0 1.377-.394 2.656-.984 3.64-.59 1.083-1.476 1.87-2.46 2.46-1.082.59-2.164.787-3.443.787-.984 0-2.066-.197-3.444-.492l-.59-.098.295-3.345h1.279l.394 2.361c.196.197.492.295.885.393.394.099.984.197 1.574.197.787 0 1.476-.197 2.165-.59a3.887 3.887 0 001.476-1.968c.393-.885.59-1.968.59-3.148 0-1.181-.098-2.263-.394-3.247-.295-.984-.787-1.771-1.377-2.361-.59-.591-1.377-.886-2.361-.886-.689 0-1.181 0-1.575.099a1.9 1.9 0 00-.885.492l-.787 1.771-1.181-.197.492-2.657c.295 0 .689-.098 1.181-.196.492-.099.885-.197 1.279-.296.393-.098.984-.098 1.574-.098 1.279 0 2.46.295 3.444.984zm-15.742 12.495l.098-.885 1.87-.099.688-9.346-1.672 2.164-5.805 6.198v.492l1.672.296-.098.885-5.116-.394.098-.885 1.476-.098.787-11.61-1.574-.295.098-.886 5.215.394-.098.885-1.673.099-.689 9.445 1.574-2.066 6.002-6.297v-.689l-1.771-.295.099-.885 5.214.393-.098.886-1.575.098-.787 11.61 1.476.295-.098.885-5.313-.295zm-20.268-1.869l.394-4.92 1.279.099.098 3.837 4.034.59 1.377-11.708-3.246-.59.098-.886 7.281.787-.099.886h-2.066l-1.279 11.511 1.968.492-.098.886-9.741-.984zm-3.05-1.574l1.378.492-.099.885-5.017-.787.098-.886h1.574l.787-4.919-6.493-.984-.787 4.92 1.476.491-.099.886-4.919-.787.098-.886h1.476l1.771-11.511-1.476-.393.099-.886 4.919.787-.099.886-1.574-.099-.885 5.412 6.493.983.886-5.411-1.574-.393.098-.886 5.116.787-.098.886-1.476-.099-1.673 11.512zm-18.89-2.067l-1.968-.393-1.869-13.577-1.082-.394.197-.885 4.821.983-.197.886-1.574-.099.295 2.854 5.313 1.082 1.377-2.558-1.574-.492.197-.886 4.329.886-.197.885-1.181-.098-6.887 11.806zm-.59-3.148l.098 1.673.787-1.575 3.05-5.509-4.624-.984.689 6.395zm-10.035-8.264c.688-1.574 1.377-2.755 2.066-3.542.393-.394.688-.59 1.082-.787.393-.099.787-.099 1.279 0 .59.098.984.295 1.279.393l-.197 1.476c-.295-.098-.689-.197-1.377-.393a.625.625 0 00-.591 0c-.196.098-.393.196-.59.393-1.279 1.181-2.46 4.034-3.64 8.461l-.394 1.476 2.066.787-.196.886-10.429-2.657.197-.885 1.77.197 2.854-11.315-1.771-.59.196-.886 5.608 1.378-.196.885-1.87-.295-2.853 11.216 3.64.886.394-1.673c.394-1.968.984-3.837 1.673-5.411zm-28.828.787l.296-.886 1.771.296 3.443-11.118-1.574-.689.295-.885 5.214 1.672-.295.886-1.672-.295-3.444 11.117 1.574.689-.295.885-5.313-1.672zm12.791-1.771c-1.476-.492-2.46-1.181-3.05-2.066-.591-.886-.689-1.968-.296-3.247.394-1.377 1.181-2.263 2.263-2.755 1.083-.492 2.362-.492 3.837-.098.197.098.394.098.591.197.196.098.393.196.59.196.689.296 1.279.492 1.771.689l2.46.787-.295.886-1.575-.295-3.443 11.117 1.377.689-.295.885-5.116-1.574.295-.885 1.869.295 1.28-4.132-2.263-.689zm3.738-6.69c-.196-.099-.492-.197-.984-.295-.983-.296-1.869-.296-2.558.098-.688.393-1.18 1.082-1.574 2.164-.295.984-.295 1.771.099 2.46.393.689 1.082 1.181 2.066 1.476l1.869.59 1.869-6.001c-.295-.295-.492-.394-.787-.492zm-24.301 4.329l1.279.787-.295.885-4.723-1.869.295-.886 1.575.394 1.869-4.723-6.1-2.361-1.869 4.723 1.279.787-.295.885-4.625-1.869.296-.886 1.475.295 4.231-10.822-1.279-.689.295-.885 4.723 1.869-.296.886-1.475-.394-1.968 5.018 6.1 2.361 1.968-5.018-1.476-.787.295-.885 4.821 1.869-.295.886-1.476-.394-4.329 10.823zm-18.005-6.002l-1.869-.886 1.082-13.675-.984-.689.394-.787 4.526 1.968-.394.885-1.476-.492-.295 2.853 5.018 2.263 1.968-2.164-1.378-.787.394-.787 4.034 1.77-.394.788-1.181-.296-9.445 10.036zm.197-3.149l-.197 1.673 1.083-1.377 4.132-4.723-4.329-1.968-.689 6.395zm-13.774-4.624l1.673 1.181-.394.787-4.427-2.361 1.574-8.658.59-2.361-1.574 1.869-6.198 6.198-4.329-2.263.393-.787 1.968.787 4.132-10.921-1.377-.983.393-.788 4.723 2.558-.394.788-1.574-.591-3.148 7.773-1.378 3.345 1.968-1.968 7.379-7.182 1.082.59-1.475 9.347-.689 3.64 1.968-3.05 4.624-7.083-1.574-.984.393-.787 4.329 2.262-.393.788-1.476-.591-6.789 9.445z"/><path d="M155.891 590.167l-1.771-1.082 2.755-13.381-.886-.787.492-.787 4.231 2.558-.492.787-1.476-.59-.688 2.853 4.722 2.755 2.165-1.968-1.279-.984.491-.787 3.838 2.263-.492.787-1.083-.393-10.527 8.756zm.59-3.148l-.393 1.672 1.279-1.18 4.722-4.231-4.132-2.459-1.476 6.198zm-8.756-3.346l1.082.984-.492.787-2.066-1.377c-.393-.197-.787-.492-1.181-.689-.59-.295-1.18-.688-1.672-.984-1.476-.983-2.361-1.967-2.657-2.951-.295-.984 0-1.968.689-3.148.59-.788 1.181-1.476 1.968-1.771.787-.394 1.672-.492 2.558-.394.885.098 1.771.492 2.656 1.082l.886.591c.295.196.492.393.59.393l2.263-3.443-2.066-1.575.492-.787 5.116 3.346-.492.787-1.377-.689-6.297 9.838zm.393-7.575c-.787-.492-1.672-.689-2.459-.591-.787.099-1.673.788-2.361 1.968-.591.886-.788 1.673-.591 2.361.197.689.787 1.378 1.673 1.968.295.197.688.394 1.082.59.197.099.394.197.492.296l3.64-5.51c-.295-.197-.787-.59-1.476-1.082zm-4.722-9.74c.492 1.082.59 2.164.295 3.345-.197 1.181-.787 2.361-1.574 3.542-.787 1.18-1.771 1.968-2.853 2.459-1.083.492-2.263.788-3.444.591-1.18-.099-2.263-.492-3.345-1.279a18.127 18.127 0 01-2.558-2.362l-.394-.491 2.067-2.657.983.689-.983 2.164c.098.197.196.492.491.886.296.295.689.688 1.181 1.082a3.544 3.544 0 002.165.689c.787 0 1.574-.295 2.361-.787.787-.492 1.574-1.279 2.263-2.263.688-.984 1.18-1.87 1.476-2.853.295-.984.393-1.87.196-2.657-.196-.787-.688-1.476-1.377-2.066-.492-.393-.984-.59-1.378-.787-.393-.197-.688-.197-.983-.098l-1.673 1.082-.885-.787 1.869-1.87c.197.099.59.296 1.082.492.492.197.886.296 1.279.492.394.197.787.492 1.378.787 1.18.689 1.967 1.575 2.361 2.657zm-34.238-10.036l.59-.688 1.476 1.082 6.198-7.084-2.656.689-8.363 1.377-.295.394 1.082 1.279-.59.688-3.838-3.443.591-.689 1.279.787 7.674-8.756-1.082-1.181.59-.688 3.935 3.443-.59.689-1.377-.984-6.297 7.182 2.46-.689 8.559-1.377.492-.492-1.18-1.279.59-.689 3.935 3.444-.59.689-1.279-.886-7.674 8.756.984 1.181-.591.689-4.033-3.444zm-9.15-8.559c-.492-.295-.886-.591-1.28-.787-.393-.197-.59-.492-.885-.689-1.082-1.082-1.77-2.066-2.066-3.05-.295-.984 0-1.771.787-2.558.689-.689 1.476-1.082 2.361-1.082.886 0 1.673.295 2.46.787-.787-.787-1.279-1.673-1.279-2.558 0-.886.295-1.673.886-2.362.885-.983 1.967-1.475 3.049-1.377 1.083.098 2.263.689 3.641 1.968.492.492.984.984 1.279 1.476.295.492.59.885.787 1.18.197.295.295.492.295.591l-2.46 2.066-.688-.689 1.279-2.066c-.197-.689-.689-1.378-1.476-2.066-.59-.591-1.279-.886-1.869-.787-.591.098-1.378.492-2.067 1.18-.491.591-.787 1.181-.885 1.87 0 .688.394 1.475 1.181 2.164l.983.886-.688.787-.787-.787c-.394-.394-.787-.591-1.279-.788-.492-.196-.984-.196-1.476-.098s-.984.394-1.476.886c-.59.59-.787 1.18-.787 1.77.098.591.394 1.181.984 1.771.393.394.787.689 1.18.788.394.196.689.196.886.098l1.476-.984.885.787-1.869 2.165c-.197 0-.492-.197-1.082-.492zm-10.823-12.004l.886 1.28-.69.59-1.77-1.87a14.122 14.122 0 00-1.18-1.082 10.872 10.872 0 01-.985-.885c-1.18-1.279-1.77-2.361-1.967-3.247-.099-.885.197-1.673.984-2.46.688-.59 1.377-.983 2.164-.983.787-.099 1.574.196 2.263.688-.787-.885-1.28-1.771-1.28-2.656 0-.886.296-1.673 1.083-2.361.886-.886 1.968-1.279 3.148-1.083 1.181.099 2.46.886 3.936 2.46.295.295.59.689.885.984.59.688.984 1.18 1.181 1.279l1.673 1.771-.69.59-1.18-.984-8.46 7.969zm1.574-5.706l-.688-.787c-.59-.59-1.181-.984-1.87-.984-.688 0-1.279.295-1.967.886-.59.59-.984 1.18-.984 1.771 0 .59.393 1.279 1.082 2.066l.984.984.295.295 3.837-3.542-.689-.689zm4.428-5.313c-.886-.885-1.673-1.377-2.46-1.476-.787-.098-1.476.197-2.165.886-.688.689-1.082 1.279-.983 1.968.098.688.393 1.377 1.18 2.164.886.886 1.378 1.476 1.673 1.771l4.034-3.837c-.197-.197-.59-.689-1.28-1.476zm-17.808-.196L76 522.969l6.79-11.806-.591-.984.688-.59 3.247 3.739-.689.59-1.18-1.082-1.574 2.459 3.542 4.133 2.656-1.181-.885-1.377.688-.591 2.853 3.345-.688.591-.886-.787-12.593 5.116zm1.476-2.854l-.984 1.476 1.574-.787 5.805-2.459-3.149-3.641-3.246 5.411zm1.574-14.265c.098 1.082-.099 2.262-.59 3.246-.492.984-1.378 2.066-2.46 2.952a7.282 7.282 0 01-3.444 1.574 6.789 6.789 0 01-3.443-.295c-1.082-.394-2.066-1.181-2.853-2.165-.59-.787-1.181-1.771-1.771-2.951l-.295-.591 2.754-1.967.787.984-1.574 1.869c0 .197.099.59.295.984.197.393.492.885.886 1.377.492.591 1.082 1.082 1.87 1.279a4.228 4.228 0 002.459-.098 9.255 9.255 0 002.853-1.574c.885-.689 1.673-1.476 2.263-2.362.59-.885.885-1.672.885-2.558.099-.885-.196-1.672-.787-2.361-.393-.492-.787-.885-1.082-1.082-.295-.197-.59-.394-.984-.394l-1.967.492-.59-.984 2.36-1.279c.197.197.492.492.886.787.394.296.787.492 1.082.788.295.295.689.688 1.082 1.18.787.984 1.28 2.066 1.378 3.149zm-18.792-7.576a6.256 6.256 0 01-3.05-.492c-.885-.394-1.673-1.083-2.263-1.968-.688-.984-1.082-1.968-1.082-3.05 0-1.082.197-2.066.787-2.952.59-.984 1.377-1.771 2.46-2.558 1.279-.885 2.46-1.377 3.64-1.672 1.18-.197 2.361-.099 3.345.295.984.393 1.87 1.082 2.558 1.968.689.983 1.082 2.066 1.18 3.148.1 1.082-.196 2.066-.786 3.05-.59.984-1.378 1.869-2.46 2.656l1.771 2.46 4.427-3.148-.787-1.476.787-.492 2.952 4.231-.787.491-1.082-1.18-9.446 6.69.69 1.377-.788.492-2.952-4.132.788-.492 1.082 1.181 4.132-2.952-1.77-2.459c-1.083.59-2.264.984-3.346.984zm-1.574-1.476c1.279 0 2.755-.591 4.427-1.87 1.476-1.082 2.46-2.164 2.952-3.345.492-1.18.393-2.263-.295-3.246-.69-.984-1.673-1.378-2.854-1.378-1.18 0-2.656.689-4.329 1.869-1.475 1.083-2.46 2.165-2.951 3.247-.492 1.181-.394 2.165.295 3.149.59 1.082 1.574 1.574 2.755 1.574zm-5.608-18.398c.295-.787.689-1.771 1.279-2.952.393-.787.689-1.377.885-1.869.197-.394.197-.689.197-.886l-.197-.688.787-.492 1.28 1.968c.196.196.098.688-.099 1.18-.197.591-.59 1.378-1.18 2.361-.59 1.181-1.083 2.067-1.378 2.755-.295.689-.295 1.181-.098 1.476l.59.984 4.526-2.853-.689-1.574.787-.492 2.755 4.329-.787.492-.984-1.181-9.839 6.198.59 1.378-.786.492-2.657-4.231.787-.492.984 1.181 4.526-2.853-.886-1.378-6.591-.295.688 1.476-.787.492-2.46-3.936.788-.492.983 1.083 6.79.491c-.198-.295-.1-.983.196-1.672zm.59-9.347a5.543 5.543 0 01-1.18 2.952c-.689.885-1.673 1.77-2.854 2.459-1.279.689-2.46 1.082-3.64 1.181-1.18.098-2.263-.197-3.247-.689-.983-.492-1.77-1.279-2.36-2.361-.985-1.673-1.181-3.247-.591-4.821.59-1.476 1.77-2.755 3.64-3.837 1.28-.689 2.558-1.082 3.739-1.181 1.18-.098 2.361.197 3.345.689.984.492 1.77 1.279 2.361 2.361.59 1.082.886 2.165.787 3.247zm-9.74 4.821c1.28.098 2.755-.394 4.526-1.378 1.672-.885 2.755-1.967 3.345-3.05.59-1.082.59-2.262 0-3.246-.59-1.083-1.574-1.574-2.853-1.673-1.28-.098-2.853.394-4.624 1.378-1.673.885-2.755 1.967-3.346 3.05-.59 1.082-.59 2.164 0 3.246.788.984 1.771 1.574 2.952 1.673zm-7.084-10.232l.492 1.476-.787.393-1.18-2.263a23.014 23.014 0 00-.788-1.377c-.295-.492-.59-.886-.688-1.181-.787-1.574-1.083-2.755-.984-3.64.098-.885.688-1.574 1.574-2.066a4.025 4.025 0 012.361-.394 3.872 3.872 0 012.066 1.279c-.59-1.082-.787-1.967-.59-2.853.197-.885.787-1.574 1.673-1.968 1.082-.59 2.263-.688 3.345-.196 1.082.393 2.164 1.574 3.05 3.345.197.393.393.787.492 1.18.393.886.688 1.378.787 1.575l1.18 2.164-.787.394-.885-1.279-10.33 5.411zm3.05-5.018l-.492-.885c-.393-.787-.885-1.279-1.574-1.476-.59-.197-1.377-.099-2.164.393-.787.394-1.28.886-1.378 1.476-.098.591 0 1.378.492 2.362.197.393.394.787.689 1.18l.197.295 4.624-2.361c0-.197-.197-.492-.394-.984zm5.608-3.935c-.59-1.083-1.18-1.771-1.967-2.066-.69-.296-1.476-.197-2.362.295-.885.393-1.377.984-1.475 1.574-.197.59 0 1.476.491 2.46.59 1.082.984 1.869 1.181 2.164l4.92-2.558c0-.295-.296-.885-.788-1.869zm-22.334-17.12l.886-.393.885 1.377 10.626-4.722-.492-1.673.886-.393 2.164 4.821-.885.393-.788-1.377-10.625 4.722 2.46 5.51 10.724-4.723-.492-1.672.885-.394 2.066 4.821-.885.394-.787-1.279-10.626 4.722.393 1.574-.885.394-5.51-12.102zm10.626-9.149c-.197.983-.787 1.967-1.574 2.754-.787.787-1.87 1.476-3.247 1.968-1.377.492-2.656.689-3.837.59-1.18-.098-2.263-.492-3.148-1.18-.886-.689-1.574-1.574-1.968-2.657-.688-1.771-.688-3.443.099-4.821.787-1.377 2.164-2.459 4.23-3.246 1.378-.492 2.657-.689 3.837-.591a6.516 6.516 0 013.247 1.181c.885.689 1.574 1.574 1.968 2.656.492 1.279.59 2.362.393 3.346zm-10.33 3.345c1.279.295 2.755 0 4.722-.689 1.771-.689 2.952-1.476 3.739-2.558.787-.984.984-2.066.492-3.247-.394-1.082-1.28-1.771-2.558-2.066-1.28-.295-2.853 0-4.723.689-1.77.688-3.05 1.476-3.738 2.558-.787.984-.886 2.066-.394 3.247.394 1.18 1.28 1.869 2.46 2.066zm.787-16.136c1.672-.295 3.05-.393 4.034-.196.491.098.885.295 1.18.492.295.295.492.59.689.983.197.591.295.984.295 1.28l-1.377.59c-.099-.295-.197-.689-.394-1.378-.098-.196-.197-.393-.393-.492-.197-.098-.394-.196-.69-.295-1.672-.393-4.722.099-9.05 1.575l-1.378.491.492 2.067-.886.295-3.443-10.232.885-.296.787 1.575 11.02-3.739-.394-1.771.886-.295 1.869 5.411-.886.295-.787-1.771-11.019 3.64 1.18 3.641 1.575-.492c2.263-.59 4.132-1.082 5.805-1.378zm-10.724-8.461l.197 1.574-.886.295-2.656-9.149 2.754-1.083.296.984-1.575.984 1.181 4.526 5.018-1.476-.886-2.952-1.574.197-.295-.984 4.132-1.18.295.984-1.476.688.788 3.05 5.312-1.574-1.672-5.018-2.558-.295v-1.18l3.247-.394 2.853 9.937-.886.295-.59-1.476-11.02 3.247zm-4.231-14.955l.886 3.05 3.935-.295.295 1.181-4.92.885-2.754-11.314 4.82-1.377.296 1.18-3.64 1.574.689 3.149 11.412-2.853-.492-2.657.886-.197 1.672 6.887-.885.197-.787-2.361-11.413 2.951zm3.444-15.84l.196.886c.296.295.69.492 1.378.688.59.197 1.377.394 2.361.591.984.196 1.673.393 2.165.492.492.098.787.295.787.492l.492 2.459-.886.197-.295-.689c-.098-.197-.295-.295-.59-.492-.394-.098-.886-.295-1.673-.59-.885-.197-1.574-.492-2.164-.689a3.16 3.16 0 01-1.28-.787c-.098.886-.393 1.574-.983 2.263-.59.59-1.28.984-2.263 1.181-1.476.295-2.558.098-3.345-.689-.787-.787-1.28-1.968-1.574-3.542-.099-.393-.099-.787-.197-1.377-.099-.591-.099-1.082-.197-1.378l-.492-2.656.886-.197.492 1.476 11.412-2.263-.197-1.771.886-.197 1.082 5.412-.885.196-.492-1.771-4.92.984.296 1.771zm-6.986.099c0 .59.099 1.082.197 1.475.197.984.492 1.673 1.082 2.066.59.394 1.28.492 2.362.296.983-.197 1.672-.591 2.164-1.181.492-.59.492-1.377.394-2.361-.197-.984-.296-1.574-.492-1.968l-5.608 1.082-.099.591zm-1.869-10.626l.59 3.148h3.936l.196 1.181-5.017.492-1.771-11.511 4.92-.984.196 1.181-3.739 1.18.394 3.247 11.61-1.771-.197-2.656.885-.099 1.082 7.084-.885.098-.59-2.361-11.61 1.771zm10.035-17.119a6.037 6.037 0 01-2.263 2.459c-.984.591-2.263.984-3.64 1.083-1.377.098-2.656 0-3.739-.492-1.082-.492-2.066-1.181-2.754-2.165-.69-.984-1.083-2.066-1.181-3.345a13.792 13.792 0 01.098-3.443l.099-.591 3.345-.197.098 1.279-2.361.689c-.098.197-.197.492-.295.984-.099.394-.099.984 0 1.574.098.787.393 1.476.885 2.066.492.591 1.18.984 2.165 1.279.885.295 1.967.295 3.246.197 1.181-.098 2.165-.393 3.149-.787.885-.394 1.672-.984 2.164-1.673.492-.688.689-1.475.59-2.459-.098-.689-.196-1.181-.295-1.476-.098-.295-.295-.59-.59-.885l-1.87-.591v-1.18l2.657.196c0 .296.197.591.394 1.083.197.393.295.885.492 1.279.196.393.196.885.295 1.574 0 1.279-.197 2.459-.689 3.542zM.933 336.233l.885-.099.295 1.771 9.347-.492-2.361-1.377-6.887-5.018H1.72l-.098 1.673-.886.098-.295-5.116.885-.098.296 1.475 11.61-.59.098-1.574h.885l.295 5.214h-.885l-.296-1.672-9.543.492 2.263 1.279 6.985 5.116h.689l.098-1.771.886-.099.295 5.215-.885.098-.296-1.574-11.61.59-.098 1.476-.885.099-.295-5.116zm-.689-20.268l4.92-.197v1.279l-3.74.591-.098 4.132 11.807-.197.197-3.247h.885l.098 7.281h-.885l-.197-2.066-11.61.196-.196 1.968H.539l-.295-9.74zm1.181-3.247l-.295 1.476H.244l.197-5.116h.885l.197 1.574 5.018.197.197-6.592-5.018-.197-.295 1.476H.539l.197-5.018h.886l.196 1.476 11.61.394.197-1.476h.885l-.197 5.018h-.885l-.099-1.575-5.41-.196-.198 6.592 5.412.196.197-1.574h.885l-.197 5.116h-.885l-.099-1.476-11.61-.295zm-.394-18.988l.197-2.066 13.184-3.542.295-1.181.885.099-.393 4.919-.886-.098-.098-1.575-2.853.689-.394 5.411 2.657 1.083.295-1.575.885.099-.295 4.427-.885-.098-.099-1.181-12.495-5.411zm3.149-.886l-1.673.296 1.673.59 5.804 2.361.394-4.722-6.198 1.475zm6.985-11.117c1.673.491 2.952.983 3.739 1.574.393.295.688.688.885.984.197.393.197.787.197 1.18a8.397 8.397 0 01-.295 1.279l-1.476-.098c.098-.295.098-.787.197-1.378 0-.196 0-.491-.099-.59-.098-.197-.295-.393-.492-.59-1.377-1.082-4.329-1.968-8.854-2.46l-1.476-.197-.492 2.067-.885-.099 1.279-10.724.885.098v1.771l11.511 1.378.394-1.771.885.098-.689 5.707-.885-.099v-1.968l-11.511-1.377-.492 3.739 1.672.197c2.362.491 4.33.787 6.002 1.279zM9.984 265.69c.296-1.476.787-2.558 1.673-3.247.886-.689 1.87-.886 3.148-.689 1.378.295 2.46.886 3.05 1.968.59.984.787 2.263.492 3.739 0 .196-.098.393-.098.59-.098.197-.098.393-.197.689-.197.688-.295 1.279-.393 1.869l-.394 2.46-.886-.197.099-1.574-11.511-2.066-.492 1.475-.886-.196.886-5.215.885.197-.098 1.869 4.23.787.492-2.459zM6.64 253.195l.886.196-.099 1.771 11.413 2.066.492-1.672.886.197-.984 5.411-.886-.197.099-1.771-11.413-2.066-.492 1.673-.886-.197.984-5.411zm10.528 15.446c.098-.197.098-.59.196-.984.197-.984 0-1.869-.491-2.558-.492-.688-1.28-1.082-2.362-1.279-.984-.196-1.87 0-2.46.394-.59.492-.983 1.18-1.18 2.164l-.295 1.87 6.198 1.082c.197-.197.295-.492.394-.689zM9.69 245.029l-.591 1.377-.886-.197 1.28-4.919.885.197-.197 1.574 4.92 1.181 1.574-6.396-4.92-1.18-.59 1.377-.885-.197 1.18-4.82.886.196-.099 1.476 11.315 2.853.59-1.377.885.197-1.18 4.919-.886-.197.197-1.574-5.313-1.279-1.574 6.395 5.313 1.279.59-1.574.886.197-1.28 5.017-.885-.196.197-1.476-11.413-2.853zm3.738-18.595l.59-1.968 13.676-.59.492-1.083.885.295-1.476 4.723-.885-.295.295-1.574h-2.952l-1.574 5.214 2.361 1.673.69-1.476.885.295-1.28 4.231-.885-.295.197-1.181-11.02-7.969zm3.148-.197h-1.673l1.476.885 5.215 3.542 1.377-4.526-6.395.099zm2.854-14.365l-.886 1.87-.886-.295 1.771-4.625 8.757.492 2.46.296-2.067-1.378-6.985-5.411 1.77-4.624.886.295-.492 1.968 11.413 2.656.787-1.476.886.295-1.968 5.117-.886-.296.394-1.672-8.166-2.165-3.542-.885 2.263 1.672 8.068 6.395-.394 1.181-9.445-.295-3.739-.197 3.247 1.574 7.576 3.641.787-1.673.885.295-1.672 4.526-.886-.295.394-1.574-10.33-5.412z"/><path d="M26.12 191.605l.787-1.869 13.675.984.59-.984.886.393-1.968 4.526-.885-.394.492-1.475-2.853-.295-2.165 5.017 2.165 1.87.787-1.378.885.394-1.77 4.034-.886-.394.295-1.181-10.035-9.248zm3.148.098l-1.673-.196 1.378 1.082 4.722 4.132 1.87-4.329-6.297-.689zm2.263-9.051l-.886 1.181-.885-.394 1.082-2.263c.197-.393.394-.787.492-1.18.295-.591.492-1.181.787-1.771.787-1.574 1.673-2.657 2.558-3.05.886-.394 1.968-.295 3.149.295.885.393 1.574.984 2.066 1.771.492.787.689 1.574.689 2.459 0 .886-.197 1.87-.69 2.755-.196.295-.294.689-.491.984-.197.295-.295.492-.295.59l3.738 1.771 1.28-2.164.786.393-2.656 5.51-.787-.393.492-1.476-10.429-5.018zm7.576-.59c.393-.886.492-1.771.197-2.558-.296-.787-.984-1.476-2.263-2.165-.984-.492-1.771-.59-2.46-.295-.689.295-1.18.886-1.771 1.968-.197.393-.295.787-.492 1.18-.098.296-.197.394-.197.492l6.002 2.854c.295-.197.59-.689.984-1.476zm9.15-5.904c-.984.591-2.067.787-3.247.787a9.006 9.006 0 01-3.64-1.082c-1.181-.689-2.165-1.476-2.854-2.558-.688-.984-.983-2.164-1.082-3.345 0-1.181.197-2.361.886-3.443.492-.886 1.082-1.771 2.066-2.854l.393-.492 2.853 1.771-.59 1.083-2.361-.689a3.216 3.216 0 00-.787.59c-.295.295-.59.787-.886 1.279a3.422 3.422 0 00-.393 2.165c.098.787.492 1.476 1.082 2.263.59.688 1.476 1.377 2.558 1.967.984.591 2.066.886 3.05 1.083.984.196 1.87.098 2.656-.197.788-.295 1.378-.886 1.87-1.673.295-.59.492-1.082.59-1.377a1.677 1.677 0 000-.984l-1.279-1.574.689-.984 2.164 1.672c-.098.197-.197.591-.295 1.181-.098.492-.197.886-.295 1.279-.099.394-.295.886-.59 1.476-.787 1.181-1.673 2.066-2.558 2.656zm3.05-31.385l.787.492-.787 1.673 7.87 5.116-1.082-2.558-2.558-8.068-.393-.295-1.083 1.279-.787-.492 2.853-4.329.788.492-.59 1.377 9.74 6.396.983-1.181.787.492-2.853 4.329-.787-.492.787-1.476-7.969-5.214 1.082 2.361 2.558 8.264.59.394 1.083-1.378.787.492-2.853 4.428-.787-.492.688-1.378-9.74-6.395-.984 1.083-.787-.492 2.657-4.428zm7.28-10.232c.197-.492.394-.984.59-1.377.197-.394.394-.689.59-.984.886-1.279 1.87-2.066 2.756-2.46.885-.393 1.77-.197 2.656.394.787.59 1.279 1.279 1.377 2.164a4.68 4.68 0 01-.393 2.558c.689-.885 1.476-1.475 2.361-1.574.886-.197 1.673 0 2.46.59 1.082.788 1.672 1.771 1.77 2.854.1 1.082-.393 2.361-1.475 3.837-.394.59-.885 1.082-1.28 1.476a7.217 7.217 0 01-1.081.885c-.296.197-.492.295-.492.394l-2.46-2.165.59-.787 2.263.984c.59-.295 1.28-.886 1.87-1.771.492-.689.688-1.378.492-1.968-.197-.689-.59-1.279-1.476-1.869-.59-.492-1.28-.689-1.968-.591-.689.099-1.377.591-2.066 1.476l-.787 1.083-.886-.591.59-.885c.296-.394.493-.886.591-1.378.098-.492.098-.984-.098-1.475-.197-.492-.59-.886-1.083-1.279-.688-.492-1.279-.689-1.869-.492-.59.196-1.082.59-1.574 1.18-.295.492-.492.886-.689 1.279a.92.92 0 000 .886l1.18 1.279-.688.984-2.46-1.575c.197-.196.394-.59.69-1.082zm10.331-12.396l-1.181 1.082-.689-.591 1.575-1.967c.295-.295.59-.787.983-1.279.296-.492.59-.886.788-1.082 1.082-1.378 2.066-2.165 2.951-2.362.886-.197 1.771 0 2.558.591a3.866 3.866 0 011.28 2.066c.196.787 0 1.574-.394 2.361.688-.984 1.574-1.476 2.46-1.673.885-.196 1.77.099 2.459.689.984.787 1.476 1.771 1.574 2.952.098 1.18-.59 2.558-1.87 4.23-.294.394-.59.689-.885.984-.689.689-.984 1.181-1.18 1.279l-1.575 1.968-.688-.59.787-1.279-8.953-7.379zm5.804.787l.69-.787c.59-.689.786-1.378.688-1.968-.099-.59-.492-1.279-1.18-1.869-.69-.591-1.28-.788-1.87-.689-.59.098-1.28.59-1.87 1.377-.295.394-.59.689-.787 1.082l-.196.296 4.034 3.246c-.099 0 .196-.295.491-.688zm5.904 3.542c.787-.984 1.18-1.87 1.082-2.657-.099-.787-.492-1.476-1.18-2.066-.788-.59-1.477-.885-2.067-.787-.689.098-1.279.59-1.968 1.476-.787.984-1.279 1.574-1.475 1.869l4.329 3.542c.196-.098.59-.59 1.279-1.377zm-2.263-17.612l1.377-1.574 12.692 5.116.885-.787.69.59-3.248 3.739-.688-.59.885-1.279-2.656-1.181-3.64 4.132 1.475 2.46 1.18-1.082.69.59-2.952 3.345-.689-.59.59-.984-6.591-11.905zm3.05 1.083l-1.574-.689.983 1.476 3.247 5.411 3.148-3.542-5.804-2.656zm14.266-.492c-1.083.295-2.165.196-3.346-.099-1.082-.393-2.164-1.082-3.246-2.066-.984-.984-1.673-2.066-2.066-3.148-.394-1.082-.394-2.362-.099-3.444.296-1.18.886-2.164 1.771-3.148.689-.689 1.574-1.377 2.755-2.165l.492-.393 2.263 2.46-.886.885-2.066-1.279c-.197 0-.492.197-.885.394-.394.196-.787.59-1.18.983a3.418 3.418 0 00-.985 1.968c-.098.787 0 1.574.394 2.46.393.885 1.082 1.771 1.968 2.558.885.787 1.77 1.476 2.656 1.869.886.394 1.771.59 2.656.59.886 0 1.575-.393 2.263-1.082.492-.492.787-.885.886-1.18a1.9 1.9 0 00.295-.984l-.787-1.87.885-.787 1.575 2.165c-.197.197-.394.492-.591.984-.197.393-.393.787-.688 1.18-.197.394-.59.787-.984 1.181a5.853 5.853 0 01-3.05 1.968zm4.821-19.678c-.197-1.082-.197-2.164.098-3.148.295-.984.787-1.77 1.574-2.558.886-.885 1.869-1.377 2.853-1.574a4.74 4.74 0 013.05.393c.984.492 1.968 1.181 2.952 2.067 1.082 1.082 1.771 2.262 2.164 3.443.394 1.18.492 2.263.197 3.345-.295 1.083-.787 1.968-1.574 2.755-.886.885-1.869 1.377-2.952 1.574a5.436 5.436 0 01-3.05-.295 8.091 8.091 0 01-2.951-2.066l-2.165 2.066 3.739 3.936 1.279-.984.59.688-3.738 3.542-.591-.688.984-1.181-7.97-8.461-1.278.885-.689-.688 3.64-3.444.69.689-.985 1.18 3.444 3.64 2.263-2.066c-.787-.885-1.279-1.869-1.574-3.05zm1.377-1.672c.197 1.279.984 2.656 2.46 4.132 1.279 1.28 2.459 2.165 3.738 2.46 1.279.295 2.263.098 3.247-.787.886-.787 1.181-1.87.886-3.05-.296-1.18-1.083-2.558-2.46-4.034-1.279-1.28-2.46-2.165-3.64-2.46-1.181-.295-2.263-.098-3.149.689-.885.787-1.279 1.77-1.082 3.05zm17.414-8.265c.787.197 1.771.493 3.05.788.886.295 1.476.492 1.968.59.492.098.689.098.885 0l.689-.295.59.688-1.771 1.476c-.196.197-.59.197-1.18.099-.59-.099-1.378-.394-2.46-.787a25.041 25.041 0 00-2.853-.984c-.689-.197-1.181-.099-1.476.098l-.885.787 3.443 4.034 1.378-.885.59.688-3.936 3.345-.59-.688 1.082-1.083-7.477-8.854-1.279.787-.59-.689 3.837-3.247.59.689-1.082 1.18 3.443 4.133 1.181-1.082-.59-6.592-1.378.885-.59-.688 3.542-2.952.59.689-.984 1.082.394 6.788c.393-.098 1.082-.098 1.869 0zm9.347-.688c-1.082.098-2.066-.197-3.05-.787a9.738 9.738 0 01-2.853-2.558c-.886-1.18-1.476-2.263-1.673-3.444-.197-1.18-.197-2.263.197-3.345.393-1.082 1.082-1.968 1.968-2.656 1.574-1.181 3.05-1.575 4.624-1.28 1.574.296 3.05 1.378 4.329 3.05.885 1.181 1.476 2.362 1.672 3.543.197 1.18.197 2.36-.196 3.443-.394 1.082-1.083 1.968-1.968 2.656-.984.886-1.968 1.28-3.05 1.378zm-6.1-8.855c.098 1.28.787 2.656 1.968 4.33 1.18 1.475 2.361 2.459 3.542 2.852 1.18.492 2.262.295 3.246-.492.984-.688 1.378-1.77 1.279-3.05-.098-1.279-.787-2.754-2.066-4.329-1.18-1.475-2.361-2.46-3.542-2.853-1.18-.393-2.263-.295-3.246.492-.886.787-1.279 1.771-1.181 3.05zm9.052-8.56l-1.378.689-.492-.787 2.066-1.476c.394-.197.787-.59 1.279-.984.492-.393.787-.688 1.083-.787 1.377-.984 2.558-1.476 3.443-1.476.886 0 1.673.394 2.263 1.28.492.688.787 1.475.689 2.262-.099.787-.394 1.575-.984 2.165.984-.689 1.869-.984 2.755-.984.885 0 1.672.492 2.263 1.377.688.984.983 2.165.688 3.247-.295 1.18-1.279 2.361-2.951 3.542a6.622 6.622 0 01-1.083.689c-.787.492-1.279.885-1.475.984l-2.067 1.475-.491-.688 1.18-1.083-6.788-9.445zm5.411 2.362l.885-.59c.689-.493 1.083-1.083 1.181-1.772.098-.688-.098-1.377-.689-2.066-.492-.688-1.082-1.082-1.672-1.18-.591-.099-1.378.196-2.263.787-.394.295-.689.59-1.082.885l-.296.295 3.05 4.23c.099-.098.394-.294.886-.59zm4.624 5.017c.984-.688 1.574-1.476 1.771-2.263.197-.787 0-1.475-.59-2.36-.591-.788-1.181-1.181-1.771-1.28-.689-.098-1.476.197-2.362.886-1.082.688-1.672 1.18-1.967 1.377L139.952 70c.296.098.886-.295 1.673-.886zm13.873-24.498l.491.787-1.18 1.083 6.1 9.838 1.574-.787.492.787-4.427 2.755-.492-.787 1.18-.984-6.198-9.937-5.116 3.148 6.198 9.937 1.574-.787.492.787-4.427 2.755-.492-.787 1.181-.984-6.1-9.838-1.476.688-.492-.787 11.118-6.887zm10.527 9.15a5.543 5.543 0 01-2.952-1.18c-.885-.69-1.672-1.673-2.361-2.952-.689-1.279-1.082-2.46-1.181-3.739-.098-1.18.197-2.263.689-3.246.492-.984 1.279-1.771 2.361-2.362 1.673-.983 3.247-1.18 4.821-.59 1.476.59 2.755 1.771 3.837 3.739.689 1.279 1.082 2.558 1.181 3.738a5.473 5.473 0 01-.787 3.346 6.795 6.795 0 01-2.361 2.36c-1.181.69-2.165.985-3.247.886zm-4.821-9.74c-.099 1.28.393 2.755 1.377 4.526.886 1.672 1.968 2.755 3.05 3.345 1.082.59 2.263.59 3.247 0 1.082-.59 1.574-1.476 1.673-2.853.098-1.28-.394-2.853-1.378-4.624-.885-1.673-1.968-2.755-3.05-3.346-1.082-.59-2.164-.59-3.247 0-.983.788-1.574 1.771-1.672 2.952zm16.234-1.476c.59 1.673.787 2.952.688 4.034 0 .492-.196.984-.393 1.279-.197.295-.492.59-.886.787-.492.295-.984.394-1.18.492l-.787-1.28c.295-.098.688-.294 1.279-.59.196-.098.393-.196.491-.393.099-.197.197-.394.197-.689.197-1.77-.787-4.624-2.853-8.756l-.689-1.28-2.066.788-.393-.787 9.642-4.821.393.787-1.476.984 5.215 10.429 1.771-.689.393.787-5.116 2.558-.393-.787 1.672-1.082-5.214-10.429-3.345 1.673.787 1.475c.885 2.066 1.672 3.936 2.263 5.51zm6.788-11.806l-1.476.393-.393-.885 8.658-3.936 1.475 2.558-.983.394-1.279-1.476-4.231 1.771 2.164 4.821 2.854-1.377-.394-1.476.984-.394 1.771 3.936-.984.393-.885-1.377-2.854 1.279 2.263 5.116 4.723-2.361-.099-2.558 1.181-.099.886 3.149-9.446 4.23-.393-.787 1.377-.787-4.919-10.527zm14.266-6.297l-2.952 1.28.886 3.836-1.181.492-1.574-4.722 10.823-4.33 2.066 4.526-1.082.394-2.067-3.443-3.05 1.082 4.428 10.92 2.558-.786.295.885-6.592 2.656-.295-.885 2.164-1.082-4.427-10.823zm16.135 1.181l-.885.295c-.197.295-.394.787-.492 1.377a16.633 16.633 0 00-.197 2.46c-.098.984-.098 1.672-.197 2.164-.098.492-.196.788-.393.886l-2.361.885-.296-.885.591-.394c.197-.098.295-.295.393-.688.099-.394.197-.984.295-1.771.099-.886.296-1.673.394-2.263.197-.59.394-1.082.689-1.378-.886.099-1.673-.098-2.362-.59-.688-.492-1.18-1.18-1.475-2.066-.492-1.377-.394-2.558.196-3.345.689-.886 1.771-1.574 3.346-2.066.295-.099.787-.295 1.377-.394.59-.197.984-.295 1.279-.393l2.558-.886.295.886-1.377.688 3.837 10.823 1.672-.394.295.886-5.214 1.87-.295-.886 1.672-.788-1.672-4.722-1.673.689zm-1.082-6.986c-.59.099-.984.295-1.476.394-.885.295-1.574.787-1.869 1.279-.394.59-.394 1.377 0 2.361.295.984.885 1.574 1.476 1.968.688.295 1.475.295 2.361 0 .984-.295 1.574-.59 1.869-.689l-1.869-5.411-.492.098zm10.232-3.246l-3.049 1.082.491 3.935-1.18.394-1.181-4.92 11.118-3.443 1.672 4.723-1.082.295-1.771-3.542-3.148.885 3.443 11.315 2.558-.59.295.885-6.788 2.066-.295-.885 2.263-.886-3.346-11.314zm18.399 7.477a6.552 6.552 0 01-2.755-1.87c-.787-.885-1.279-2.066-1.673-3.443-.295-1.377-.295-2.656 0-3.837.295-1.18.886-2.165 1.771-2.952.886-.787 1.87-1.377 3.149-1.672a15.81 15.81 0 013.443-.394h.59l.591 3.345-1.181.296-.984-2.165c-.197-.098-.492-.197-.984-.197s-.984.099-1.574.197a3.414 3.414 0 00-1.869 1.18c-.492.591-.787 1.378-.984 2.264a9.44 9.44 0 00.197 3.246c.295 1.181.688 2.165 1.18 2.952.492.787 1.181 1.476 1.968 1.87.787.393 1.574.491 2.46.294.688-.196 1.082-.295 1.475-.491.296-.197.591-.394.788-.69l.295-1.967 1.18-.098.197 2.656c-.295.099-.59.295-1.082.492-.394.197-.787.492-1.181.59-.393.197-.885.296-1.476.492-1.279.296-2.459.296-3.541-.098zM253.982 6.64l.197.885-1.771.59 1.771 9.248 1.082-2.558 4.034-7.477-.099-.492-1.672.098-.197-.885 5.018-.984.196.885-1.377.492 2.263 11.413 1.574-.098.197.885-5.116.984-.197-.885 1.574-.492-1.869-9.347-.984 2.361-4.132 7.576.098.689 1.771-.197.197.885-5.215.984-.196-.885 1.475-.492-2.262-11.413-1.476.098-.197-.885 5.313-.984zm20.071-3.444l.885 4.82-1.279.197-1.082-3.64-4.132.492 1.771 11.708 3.246-.295.099.885-7.281 1.082-.098-.885 1.968-.492-1.771-11.413h-1.968l-.099-.885 9.741-1.574zm3.443.688l-1.476-.098-.098-.885 5.018-.59.098.885-1.574.393.59 5.018 6.494-.689-.591-5.017-1.574-.099-.098-.885 5.017-.59.099.885-1.476.393 1.279 11.512h1.476l.098.885-5.018.59-.098-.885 1.476-.394-.59-5.41-6.494.688.59 5.411h1.673l.098.886-5.116.59-.098-.886 1.476-.393-1.181-11.315zM296.19.933l2.066-.099 5.312 12.594 1.181.098.099.886-4.92.295-.098-.886 1.574-.295-1.082-2.755-5.411.296-.689 2.853 1.574.098.098.886-4.427.295-.098-.886 1.18-.295L296.19.933zm1.377 2.853l-.59-1.574-.296 1.672-1.475 6.1 4.722-.295-2.361-5.903zm11.905 5.411c-.197 1.673-.591 3.05-1.083 3.936-.295.492-.59.787-.885.984-.295.196-.689.295-1.181.295-.59 0-1.082 0-1.377-.099l-.197-1.475h1.377c.197 0 .394-.099.591-.197.197-.099.295-.295.492-.59.885-1.476 1.377-4.526 1.279-9.15V1.425h-2.066V.44l10.822-.197v.984l-1.771.295.197 11.61 1.869.197v.885l-5.805.098v-.885l1.968-.197-.197-11.61-3.837.099v1.673c.099 2.066 0 4.132-.196 5.804zm15.741-3.345c1.476.099 2.657.492 3.444 1.18.787.69 1.181 1.772 1.082 3.05-.098 1.476-.59 2.559-1.476 3.247-.983.788-2.164 1.083-3.64 1.083h-.59c-.197 0-.394 0-.689-.099-.689-.098-1.377-.098-1.968-.196l-2.558-.099v-.885l1.575-.099.393-11.61-1.476-.294V.244l5.313.197v.885l-1.869.197-.197 4.33h2.656zm-1.967 7.477c.197 0 .59.099.984.099 1.082 0 1.869-.197 2.459-.787.591-.59.886-1.378.886-2.46s-.197-1.77-.787-2.361c-.492-.492-1.279-.787-2.362-.886h-1.869l-.197 6.297c.394 0 .689.098.886.098zM337.118.835v.886l-1.771.197-.393 11.61 1.771.294v.886l-5.51-.197v-.885l1.771-.099.394-11.61-1.771-.294V.736l5.509.098zm8.462 1.869l-1.476-.394.098-.885 5.018.492-.099.885-1.574.099-.492 5.017 6.592.689.492-5.018-1.476-.393.099-.886 5.017.492-.098.886-1.476.098-1.18 11.61 1.475.295-.098.885-5.018-.492.099-.885h1.574l.59-5.411-6.592-.69-.59 5.412 1.574.394-.098.885-5.116-.59.098-.886h1.574l1.083-11.61zm18.89.984l2.066.295 2.558 13.479 1.082.393-.098.886-4.92-.787.099-.886 1.574.099-.394-2.952-5.411-.787-1.279 2.558 1.574.393-.098.886-4.428-.689.099-.885h1.18l6.396-12.003zm.787 3.148l-.197-1.672-.689 1.574-2.755 5.608 4.723.688-1.082-6.198zm14.462.787l-1.967-.688.196-.886 4.821 1.082.787 8.757.099 2.46 1.082-2.165 4.329-7.674 4.821 1.082-.197.885-2.066-.196-1.082 11.61 1.574.59-.197.885-5.214-1.18.196-.886 1.673.197.984-8.363.393-3.64-1.377 2.46-5.116 8.854-1.181-.295-.984-9.445-.295-3.64-1.082 3.443-2.558 8.068 1.771.59-.197.885-4.722-1.082.196-.885 1.575.196 3.738-11.019z"/><path d="M400.774 11.362l1.968.59.984 13.676 1.082.393-.197.886-4.723-1.28.197-.885 1.574.197-.098-2.853-5.214-1.476-1.575 2.46 1.476.59-.197.886-4.23-1.181.197-.886 1.18.099 7.576-11.216zm.393 3.148v-1.672l-.885 1.475-3.443 5.313 4.624 1.28-.296-6.396zm9.249.886l-1.279-.69.295-.885 2.361.787c.394.099.886.295 1.279.394.689.197 1.279.295 1.869.492 1.673.59 2.854 1.279 3.346 2.164.491.886.59 1.968.196 3.149a4.567 4.567 0 01-1.475 2.263c-.689.59-1.476.885-2.362.983-.885.099-1.869 0-2.853-.295a4.776 4.776 0 01-1.082-.393c-.394-.099-.591-.197-.689-.295l-1.279 3.935 2.361.984-.295.885-5.805-1.869.296-.885 1.574.295 3.542-11.02zm1.672 7.477c.984.295 1.771.295 2.558-.099.787-.393 1.378-1.18 1.771-2.558.295-.983.295-1.869-.098-2.46-.394-.59-1.082-1.082-2.165-1.475a25.842 25.842 0 00-1.279-.295c-.295-.099-.492-.099-.492-.099l-2.066 6.297c.394.197.886.394 1.771.689zm7.084 8.166a5.858 5.858 0 01-1.181-3.05c-.098-1.082.099-2.46.591-3.837.492-1.28 1.18-2.361 2.066-3.149.885-.787 1.968-1.279 3.148-1.475 1.181-.197 2.361-.099 3.542.393.886.295 1.968.886 3.05 1.574l.59.296-1.377 3.05-1.181-.394.394-2.361c-.099-.197-.394-.394-.689-.689-.295-.295-.885-.492-1.476-.689-.787-.295-1.475-.295-2.263-.098-.787.197-1.475.689-2.066 1.377-.59.689-1.18 1.673-1.574 2.755-.393 1.082-.59 2.165-.689 3.148 0 .984.099 1.87.591 2.657.492.787 1.082 1.279 1.967 1.574.591.197 1.083.394 1.476.394.394 0 .689 0 .984-.099l1.378-1.476 1.082.59-1.378 2.362c-.295-.098-.688-.098-1.18-.197-.492 0-.886-.098-1.378-.098-.393-.099-.885-.197-1.475-.394-1.181-.59-2.263-1.279-2.952-2.164zm27.351-3.247l-.393.886-1.771-.59-3.837 8.559 2.361-1.476 7.576-3.738.197-.492-1.378-.886.394-.885 4.722 2.164-.393.886-1.476-.394-4.821 10.626 1.377.787-.393.787-4.723-2.165.394-.787 1.574.492 3.936-8.658-2.165 1.378-7.772 3.837-.296.59 1.476.886-.393.787-4.821-2.165.393-.787 1.476.492 4.821-10.626-1.279-.787.394-.885 4.82 2.164zm11.315 5.608c.59.099.984.295 1.377.394.394.098.787.295 1.082.393 1.378.689 2.362 1.476 2.854 2.361.491.886.491 1.771 0 2.657-.492.885-1.083 1.476-1.968 1.672-.787.296-1.673.296-2.558 0 .984.59 1.672 1.28 1.968 2.067.295.787.196 1.672-.197 2.46-.591 1.18-1.476 1.967-2.558 2.164-1.083.295-2.362 0-4.034-.787-.689-.295-1.181-.69-1.673-1.083s-.787-.688-1.082-.885l-.492-.492 1.771-2.755.787.394-.59 2.361c.393.59 1.082 1.082 1.968 1.574.787.394 1.377.492 2.066.197.59-.295 1.18-.787 1.574-1.673.393-.688.393-1.377.295-2.066-.098-.688-.787-1.279-1.771-1.77l-1.181-.591.492-.886.984.492c.492.197.984.394 1.476.394s.984-.098 1.476-.393c.492-.296.787-.69 1.082-1.28.394-.787.492-1.377.197-1.967-.197-.59-.689-.984-1.476-1.378-.492-.295-.885-.393-1.377-.492-.394-.098-.689 0-.886.099l-1.082 1.377-1.082-.492 1.18-2.656c.394.295.787.393 1.378.59zm13.774 8.363l-1.181-.984.492-.787 2.165 1.28c.393.196.885.491 1.475.786l1.181.59c1.476.886 2.46 1.673 2.755 2.559.393.787.295 1.672-.197 2.558-.492.787-1.082 1.279-1.771 1.574-.689.295-1.574.295-2.459 0 1.082.59 1.77 1.279 2.066 2.164.295.886.196 1.673-.296 2.558-.59 1.083-1.574 1.771-2.656 1.968-1.181.197-2.656-.197-4.427-1.18-.394-.197-.787-.492-1.083-.69-.787-.491-1.279-.786-1.475-.885l-2.165-1.279.492-.787 1.476.59 5.608-10.035zm-2.46 12.2c1.082.59 1.968.886 2.755.689.787-.197 1.377-.689 1.869-1.476s.591-1.574.394-2.165c-.197-.59-.787-1.18-1.771-1.77-1.082-.59-1.771-.984-2.066-1.181l-2.755 4.82c.098.197.689.493 1.574 1.083zm2.657-6.395l.885.492c.787.393 1.476.59 2.066.393.59-.196 1.181-.688 1.574-1.475.394-.788.591-1.378.394-1.968-.197-.59-.787-1.18-1.673-1.673a15.915 15.915 0 00-1.279-.59l-.393-.197-2.558 4.526c.197 0 .492.197.984.492zm14.462 1.377l1.771 1.082-3.05 13.283.886.787-.492.787-4.132-2.657.492-.787 1.377.689.787-2.853-4.624-2.952-2.263 1.87 1.279.983-.492.787-3.738-2.36.491-.788 1.083.492 10.625-8.363zm-.688 3.148l.492-1.672-1.279 1.18-4.821 4.034 4.034 2.559 1.574-6.1zm2.656 14.07c-.492-1.082-.59-2.165-.393-3.345.197-1.18.688-2.362 1.574-3.542.787-1.18 1.771-1.968 2.853-2.558 1.082-.59 2.263-.787 3.444-.689 1.18.098 2.262.492 3.345 1.28.787.59 1.672 1.377 2.558 2.36l.393.492-2.066 2.657-.984-.689.984-2.263c-.098-.197-.197-.492-.492-.787-.295-.295-.688-.689-1.18-.984a3.544 3.544 0 00-2.165-.689c-.787 0-1.574.296-2.361.788-.787.491-1.574 1.279-2.263 2.262-.689.984-1.181 1.968-1.476 2.854-.295.983-.295 1.869-.098 2.656.197.787.689 1.476 1.476 2.066.59.394.984.59 1.377.689.394.098.689.197.984.098l1.672-1.082.886.787-1.869 1.968a13.844 13.844 0 00-1.083-.492c-.492-.099-.885-.295-1.279-.492-.393-.197-.885-.394-1.377-.787a5.166 5.166 0 01-2.46-2.558zm20.169 1.771a6.714 6.714 0 013.05-.394c.984.098 1.968.59 2.755 1.18.984.788 1.574 1.575 1.968 2.559.295.984.393 1.968.098 3.05a8.549 8.549 0 01-1.672 3.247 9.591 9.591 0 01-3.05 2.656c-1.083.59-2.165.787-3.345.689-1.181-.099-2.067-.492-2.952-1.181-.984-.787-1.673-1.673-2.066-2.656-.394-.984-.394-1.968-.197-3.05a9.866 9.866 0 011.574-3.247l-2.361-1.87-3.345 4.33 1.181 1.18-.591.689-4.034-3.148.591-.69 1.377.788 7.084-9.15-1.082-1.082.59-.787 3.935 3.05-.59.787-1.377-.787-3.05 3.935 2.361 1.87c1.181-.886 2.165-1.476 3.148-1.968zm1.968 1.082c-1.181.393-2.46 1.377-3.739 3.05-1.082 1.476-1.771 2.755-1.869 4.034-.098 1.279.295 2.263 1.279 3.05.984.688 1.968.885 3.148.393 1.181-.393 2.362-1.476 3.641-3.05 1.082-1.475 1.771-2.755 1.869-4.034.098-1.279-.295-2.263-1.181-2.951-.885-.689-1.967-.886-3.148-.492zm10.822 15.938c0 .788-.196 1.87-.393 3.149-.197.885-.197 1.574-.295 1.968 0 .393 0 .787.098.885l.394.59-.591.69-1.771-1.477c-.196-.196-.295-.59-.196-1.18.098-.59.196-1.476.393-2.558.295-1.28.394-2.263.492-2.952.099-.689-.098-1.18-.295-1.476l-.885-.787-3.444 4.034 1.082 1.279-.59.689-3.837-3.345.59-.69 1.279.886 7.576-8.756-.984-1.18.59-.69 3.739 3.247-.59.69-1.279-.886-3.542 4.034 1.18 1.082 6.396-1.574-1.083-1.181.591-.689 3.443 3.05-.59.689-1.279-.787-6.592 1.476c.295.393.393.983.393 1.77zm2.067 9.15c-.197-.984-.197-2.066.295-3.148.393-1.082 1.082-2.165 2.066-3.148.984-1.083 2.066-1.771 3.148-2.165 1.181-.394 2.263-.492 3.345-.295 1.083.197 2.066.689 2.952 1.574 1.377 1.377 2.066 2.755 1.968 4.427-.099 1.575-.886 3.149-2.362 4.723-.984 1.082-2.066 1.77-3.246 2.263-1.181.393-2.263.492-3.444.295-1.082-.197-2.066-.787-2.952-1.574-.983-.984-1.475-1.968-1.77-2.952zm7.87-7.477c-1.18.295-2.558 1.18-3.935 2.656-1.279 1.378-2.066 2.657-2.263 3.936-.295 1.279.098 2.263.984 3.148.885.787 1.968 1.082 3.148.787 1.279-.295 2.558-1.18 3.936-2.656 1.279-1.378 2.066-2.657 2.263-3.936.196-1.18-.099-2.263-.984-3.148-.886-.787-1.87-1.082-3.149-.787zm9.839 7.773l-.885-1.28.688-.688 1.771 1.77c.295.296.689.69 1.181 1.083.492.394.787.689.984.886 1.18 1.279 1.869 2.262 1.968 3.246.098.984-.197 1.673-.886 2.46-.59.59-1.377.984-2.165 1.082-.787.099-1.574-.098-2.361-.689.886.886 1.279 1.673 1.378 2.657.098.885-.296 1.672-.984 2.361-.886.886-1.968 1.279-3.149 1.181-1.18-.099-2.459-.886-3.935-2.361-.295-.296-.59-.689-.885-.984-.689-.689-1.083-1.181-1.181-1.279l-1.771-1.771.689-.591 1.18.984 8.363-8.067zm-5.805 11.019c.886.885 1.673 1.377 2.46 1.377.787 0 1.476-.295 2.164-.984.689-.688.984-1.377.984-1.967 0-.591-.393-1.378-1.18-2.165l-1.673-1.672-4.034 3.837c.197.393.591.885 1.279 1.574zm4.329-5.411l.689.787c.59.59 1.279.885 1.869.885.689 0 1.279-.295 1.968-.984.59-.59.886-1.18.886-1.77 0-.59-.394-1.28-1.181-2.067-.295-.295-.689-.59-.984-.984l-.295-.295-3.739 3.64.787.788zm22.137 15.249l-.688.591-1.181-1.083-8.756 7.576.983 1.476-.688.59-3.444-4.034.689-.59 1.181 1.082 8.854-7.575-3.935-4.526-8.855 7.674.984 1.476-.689.59-3.443-3.935.688-.591 1.083.984 8.756-7.576-.885-1.377.688-.59 8.658 9.838zm-7.477 11.905c-.099-1.082.197-2.066.688-3.05a10.91 10.91 0 012.46-2.853c1.082-.885 2.263-1.476 3.444-1.672 1.18-.197 2.263-.197 3.345.196 1.082.394 1.967 1.083 2.656 1.968 1.181 1.574 1.673 3.05 1.279 4.624-.295 1.574-1.377 3.05-3.05 4.329-1.18.886-2.361 1.476-3.542 1.673-1.18.196-2.361.196-3.443-.197-1.082-.394-1.968-1.082-2.755-1.968-.59-.984-1.082-2.066-1.082-3.05zm8.855-6.198c-1.28.098-2.657.787-4.329 2.066-1.476 1.181-2.46 2.361-2.854 3.542-.393 1.181-.295 2.263.492 3.247.787.984 1.771 1.377 3.05 1.279 1.279-.099 2.755-.787 4.329-2.066 1.476-1.181 2.46-2.362 2.853-3.542.394-1.181.197-2.263-.491-3.247-.788-.984-1.771-1.377-3.05-1.279zm3.935 15.643c-1.574.787-2.853 1.279-3.837 1.378-.492 0-.984 0-1.279-.197-.394-.197-.689-.394-.984-.787-.393-.492-.59-.886-.689-1.181l1.181-.984c.098.296.394.689.787 1.181.099.197.295.295.492.394.197.098.394.098.689.098 1.771-.098 4.526-1.476 8.166-4.132l1.18-.886-1.082-1.869.787-.59 6.297 8.756-.787.59-1.181-1.279-9.445 6.789.886 1.574-.787.492-3.346-4.723.788-.491 1.279 1.475 9.445-6.788-2.165-3.05-1.377.984c-1.771 1.475-3.444 2.459-5.018 3.246zm12.79 4.919l-.689-1.377.788-.492 5.214 7.969-2.263 1.771-.59-.885 1.181-1.476-2.46-3.935-4.428 2.853 1.771 2.558 1.476-.59.591.885-3.641 2.361-.59-.885 1.181-1.082-1.673-2.657-4.624 3.05 3.05 4.329 2.558-.492.295 1.082-3.05 1.279-5.706-8.658.787-.491.984 1.18 9.838-6.297zm8.461 13.086l-1.771-2.656-3.738 1.475-.591-1.082 4.428-2.263 6.001 10.036-4.23 2.754-.591-.983 3.05-2.559-1.574-2.853-10.134 6.002 1.181 2.361-.787.492-3.64-6.1.787-.492 1.377 1.968 10.232-6.1zm1.28 16.135l-.394-.787c-.295-.197-.787-.197-1.476-.197s-1.476.099-2.459.197c-.984.099-1.673.099-2.165.099s-.787-.099-.885-.296l-1.181-2.263.787-.393.492.59c.098.099.393.197.787.295.394 0 .984 0 1.771.099h2.361c.591.098 1.083.197 1.476.393-.197-.885-.098-1.672.197-2.361a3.862 3.862 0 011.771-1.771c1.279-.689 2.459-.787 3.345-.295.885.492 1.771 1.476 2.558 2.952.197.295.394.787.59 1.279.197.59.394.983.591 1.279l1.279 2.361-.787.492-.984-1.279-10.233 5.509.689 1.575-.787.295-2.656-4.821.787-.394.984 1.476 4.329-2.361-.787-1.673zm6.69-2.066a19.137 19.137 0 00-.591-1.377c-.491-.886-.983-1.378-1.574-1.673-.59-.295-1.377-.098-2.263.394-.885.492-1.475 1.082-1.672 1.771-.197.688-.099 1.475.393 2.361.492.885.787 1.476.984 1.672l5.018-2.754-.295-.394zm4.821 9.544l-1.476-2.854-3.837 1.181-.492-1.082 4.624-1.87 5.116 10.429-4.427 2.362-.492-1.083 3.247-2.262-1.279-2.952-10.626 5.116.984 2.46-.787.393-3.149-6.395.787-.393 1.279 2.066 10.528-5.116zm-4.526 19.283c.197-1.082.688-2.164 1.476-2.951.787-.886 1.869-1.575 3.148-2.165 1.279-.492 2.558-.787 3.739-.59 1.18.098 2.262.59 3.246 1.279.984.688 1.673 1.672 2.165 2.853.393.885.689 1.968.885 3.345l.099.59-3.149 1.083-.492-1.181 1.968-1.377c.098-.197.098-.591 0-.984-.098-.394-.197-.984-.492-1.476a3.473 3.473 0 00-1.476-1.673c-.688-.393-1.475-.59-2.459-.59s-1.968.295-3.149.689c-1.082.492-1.967.984-2.754 1.672-.788.689-1.279 1.378-1.575 2.165-.295.787-.196 1.672.099 2.459.295.591.492 1.083.787 1.378.197.295.492.492.787.689h1.968l.295 1.18-2.657.591a3.581 3.581 0 00-.688-.984c-.295-.394-.591-.689-.787-1.083-.197-.393-.492-.787-.689-1.377-.295-1.181-.492-2.361-.295-3.542zm17.906 9.249l-.885.295-.886-1.673-8.854 3.247 2.656.689 8.068 2.754.491-.196-.393-1.673.885-.295 1.771 4.821-.885.295-.689-1.279-10.921 4.034.394 1.574-.886.295-1.771-4.919.886-.295.787 1.475 8.953-3.246-2.558-.591-8.166-2.853-.59.197.393 1.673-.885.295-1.771-4.92.885-.295.689 1.378 10.921-4.034-.295-1.476.885-.295 1.771 5.018zm6.494 19.283l-4.625 1.574-.393-1.18 3.443-1.673-1.082-3.935-11.216 3.542.787 3.148-.885.295-2.263-6.985.885-.295.787 1.869 11.02-3.542-.394-1.968.886-.295 3.05 9.445zm-.197 3.444l-.197-1.476.885-.197 1.279 4.919-.885.197-.59-1.476-4.821 1.279 1.672 6.396 4.821-1.279-.197-1.476.886-.197 1.279 4.821-.886.197-.59-1.378-11.216 3.05.197 1.476-.886.197-1.279-4.821.886-.197.59 1.476 5.215-1.378-1.673-6.395-5.214 1.378.196 1.574-.885.197-1.378-4.92.886-.196.59 1.377 11.315-3.148zm5.903 18.004l.492 1.968-11.61 7.182.099 1.181-.886.197-1.082-4.821.885-.197.492 1.476 2.558-1.476-1.18-5.313-2.853-.295.196 1.574-.885.197-.984-4.329.885-.197.394 1.082 13.479 1.771zm-2.657 1.87l1.476-.787-1.771-.099-6.296-.59.983 4.624 5.608-3.148zm-3.443 12.593c-1.771 0-3.05-.098-4.034-.492-.492-.197-.885-.393-1.082-.688-.295-.296-.394-.689-.492-1.083-.098-.59-.197-.984-.098-1.279l1.475-.393c0 .295.099.787.197 1.377 0 .197.099.394.295.59.099.197.296.296.591.394 1.574.689 4.722.59 9.15-.197l1.475-.295-.196-2.164.885-.197 1.869 10.626-.885.196-.492-1.672-11.413 1.967.099 1.87-.886.197-.984-5.707.886-.197.492 1.87 11.412-1.968-.688-3.739-1.673.295a51.91 51.91 0 01-5.903.689zm5.707 14.955c.196 1.476 0 2.755-.689 3.64-.59.886-1.574 1.378-2.853 1.574-1.378.197-2.558-.196-3.444-.984-.885-.787-1.377-1.967-1.574-3.443 0-.197 0-.394-.098-.59-.099-.197 0-.394 0-.689 0-.689-.099-1.377-.099-1.968l-.295-2.558.885-.098.394 1.574 11.61-1.377.098-1.575.885-.098.591 5.313-.886.098-.59-1.771-4.329.492.394 2.46zm-7.675-.689c0 .197 0 .59.099.984.098 1.082.492 1.771 1.18 2.263.689.492 1.476.689 2.558.492.984-.099 1.771-.492 2.165-1.082.492-.591.59-1.378.492-2.46l-.197-1.869-6.297.787v.885zm14.463 11.708l-.885.098-.394-1.672-11.511 1.377v1.771l-.885.099-.689-5.412.885-.098.394 1.673 11.511-1.378v-1.771l.885-.098.689 5.411zm-.59 8.658l.196-1.476h.886l.197 5.116h-.886l-.295-1.574-5.018.197.295 6.592 5.018-.197.197-1.476h.885l.197 5.018h-.885l-.295-1.476-11.61.59-.098 1.476h-.886l-.197-5.017h.886l.295 1.475 5.411-.295-.295-6.592-5.411.296-.099 1.672h-.885l-.197-5.116h.886l.295 1.476 11.413-.689zm1.869 18.693v2.066l-12.79 4.723-.197 1.181h-.885l-.099-4.92h.886l.196 1.575 2.755-.886-.098-5.411-2.755-.787-.197 1.574h-.885l-.099-4.427h.886l.197 1.18 13.085 4.132zm-2.952 1.181l1.673-.492-1.673-.394-6.001-1.77.098 4.722 5.903-2.066zm1.476 14.66l.394-2.067.885.099-.295 4.919-8.56 2.066-2.361.492 2.361.689 8.265 3.148-.295 4.92-.886-.099-.098-2.066-11.708.787-.295 1.574-.886-.098.295-5.411.886.098.098 1.673 8.462-.295 3.64-.197-2.657-.984-9.543-3.739.098-1.18 9.15-2.46 3.641-.886-3.641-.59-8.363-1.279-.295 1.869-.885-.098.295-4.821.885.099.099 1.574 11.314 2.263z"/><path d="M632.375 352.565l-.197 2.066-13.282 3.05-.295 1.082-.886-.098.591-4.92.885.099v1.574l2.853-.59.591-5.412-2.657-1.18-.393 1.574-.886-.099.492-4.427.886.098.098 1.181 12.2 6.002zm-3.149.787l1.673-.295-1.574-.591-5.707-2.558-.491 4.723 6.099-1.279zm.591 9.248l.492-1.377.885.098-.394 2.46c-.098.492-.098.885-.196 1.279-.099.688-.099 1.279-.197 1.869-.295 1.771-.787 2.952-1.574 3.64-.787.591-1.771.886-3.149.689-.984-.197-1.771-.492-2.459-1.082-.689-.591-1.083-1.279-1.378-2.165-.295-.885-.295-1.869-.098-2.853.098-.393.098-.689.197-1.082.098-.394.098-.591.196-.689l-4.033-.59-.591 2.459-.885-.098.984-6.002.885.099-.098 1.574 11.413 1.771zm-7.084 2.755c-.197.984 0 1.771.492 2.558.492.787 1.377 1.18 2.754 1.377 1.083.197 1.87 0 2.362-.393.59-.492.885-1.279 1.082-2.362.098-.393.098-.787.098-1.279v-.59l-6.591-.984c0 .295-.099.886-.197 1.673zm-6.985 8.363a6.458 6.458 0 012.853-1.673c1.18-.295 2.459-.295 3.837 0 1.377.295 2.558.787 3.443 1.574.984.787 1.574 1.771 1.968 2.853.394 1.083.492 2.263.197 3.542-.197.984-.591 2.066-1.082 3.345l-.197.591-3.247-.787.197-1.181h2.459c.197-.098.394-.393.591-.787.197-.394.295-.885.492-1.476.196-.787.098-1.476-.295-2.263-.296-.688-.886-1.279-1.673-1.869-.787-.492-1.771-.885-3.05-1.181-1.181-.196-2.263-.295-3.247-.196-.984.098-1.869.393-2.558.983-.688.492-1.082 1.181-1.279 2.165-.098.689-.197 1.181-.098 1.574 0 .394.098.689.295.984l1.673 1.082-.394 1.082-2.558-.983v-1.181c0-.492-.098-.886-.098-1.377 0-.394.098-.984.196-1.575.296-1.279.787-2.361 1.575-3.246zm7.477 26.465l-.886-.295.295-1.869-9.051-2.46 1.771 2.066 4.919 6.986.492.098.689-1.574.885.295-1.377 4.92-.886-.296.197-1.475-11.216-3.05-.59 1.475-.886-.196 1.378-5.018.885.197-.295 1.672 9.15 2.558-1.771-1.869-4.919-7.084-.689-.197-.689 1.673-.885-.197 1.377-5.116.886.197-.197 1.574 11.216 3.05.59-1.377.886.295-1.279 5.017zm-3.739 12.004c-.098.59-.098 1.082-.197 1.475-.098.394-.196.788-.295 1.083-.492 1.475-1.082 2.558-1.869 3.148-.787.59-1.673.787-2.657.492-.984-.295-1.574-.886-1.967-1.673-.394-.787-.492-1.574-.394-2.558-.393 1.083-.984 1.87-1.771 2.263-.787.394-1.574.492-2.459.197-1.279-.394-2.165-1.082-2.559-2.165-.393-.983-.393-2.361.197-4.132.197-.688.492-1.279.787-1.869.295-.492.591-.886.787-1.181.197-.295.296-.492.394-.492l2.952 1.279-.296.886-2.459-.295c-.492.492-.886 1.18-1.279 2.263-.295.787-.197 1.475.098 2.066.295.59.984.984 1.968 1.279.689.197 1.377.197 2.066-.099.689-.295 1.181-.984 1.476-1.967l.393-1.279.984.295-.295.984c-.197.492-.197.983-.197 1.475.099.492.295.984.59 1.378.296.393.788.689 1.378.885.787.295 1.476.197 1.968-.098.492-.295.885-.886 1.18-1.673.197-.492.295-.984.197-1.377 0-.394-.098-.689-.295-.886l-1.574-.885.393-1.082 2.755.688c.098.591 0 .984 0 1.575zm-6.1 15.053l.787-1.378.886.296-.886 2.361c-.196.393-.295.885-.491 1.574-.197.59-.296.984-.394 1.279-.59 1.574-1.279 2.656-2.066 3.148-.787.492-1.673.591-2.558.197-.787-.295-1.476-.787-1.87-1.574-.393-.689-.491-1.476-.393-2.361-.394 1.082-.984 1.869-1.771 2.361-.787.394-1.673.492-2.558.098-1.181-.492-1.968-1.279-2.361-2.361-.394-1.082-.295-2.656.492-4.526.196-.393.295-.787.492-1.18.393-.886.59-1.476.688-1.574l.886-2.362.885.295-.393 1.476 10.625 4.231zm-12.495-.59c-.492 1.18-.492 2.164-.295 2.853.197.688.886 1.279 1.771 1.574.886.393 1.673.393 2.263.098.59-.295 1.082-.984 1.476-1.967.492-1.181.689-1.968.787-2.263l-5.215-1.968c-.098.098-.393.689-.787 1.673zm6.691 1.574l-.394.984c-.295.787-.295 1.475 0 2.066.295.59.886 1.082 1.673 1.377.787.295 1.475.295 2.066.098.492-.295.984-.885 1.377-1.967.197-.394.295-.886.394-1.279l.098-.394-4.821-1.869c0 .197-.197.492-.393.984zm.885 14.561l-.787 1.869-13.676-.984-.59.984-.886-.394 1.968-4.525.886.393-.492 1.476 2.853.295 2.164-5.018-2.164-1.869-.787 1.378-.886-.394 1.771-4.034.886.394-.296 1.18 10.036 9.249zm-3.247-.197l1.673.197-1.378-1.083-4.722-4.132-1.87 4.329 6.297.689zm-13.479 4.821a6.196 6.196 0 013.247-.886c1.181 0 2.46.394 3.739.984 1.279.591 2.263 1.378 2.951 2.362a6.503 6.503 0 011.181 3.246c.098 1.181-.197 2.362-.689 3.444-.393.885-1.082 1.869-1.869 2.951l-.394.492-2.951-1.672.59-1.083 2.361.591c.197-.099.492-.295.787-.689.296-.295.591-.787.788-1.377a3.016 3.016 0 00.295-2.263c-.099-.787-.492-1.476-1.181-2.165-.689-.688-1.476-1.377-2.656-1.869-1.083-.492-2.066-.885-3.05-.984-.984-.098-1.87 0-2.657.295-.787.295-1.377.886-1.771 1.771-.295.591-.492 1.082-.492 1.476-.098.394 0 .689 0 .984l1.279 1.476-.688.984-2.165-1.575c.099-.196.197-.59.295-1.18.099-.492.197-.886.296-1.279.098-.394.295-.886.59-1.476.393-.984 1.181-1.968 2.164-2.558zm1.378 20.267c.59.984.885 1.968.885 2.952s-.197 1.968-.787 2.853c-.59 1.082-1.377 1.87-2.263 2.361-.885.492-1.968.689-3.05.591-1.082-.099-2.263-.492-3.443-1.082-1.279-.689-2.362-1.575-3.05-2.657-.689-.984-1.181-2.066-1.181-3.148-.098-1.083.197-2.165.689-3.149a6.851 6.851 0 012.263-2.459c.885-.492 1.967-.689 3.05-.591 1.082.099 2.262.492 3.443 1.083l1.476-2.657-4.821-2.656-.984 1.279-.787-.492 2.46-4.526.787.394-.591 1.475 10.134 5.608.886-1.18.787.492-2.46 4.427-.787-.492.59-1.476-4.427-2.459-1.476 2.656c1.279.984 2.066 1.87 2.657 2.853zm-.689 1.968c-.59-1.082-1.771-2.164-3.542-3.148-1.574-.886-3.05-1.279-4.329-1.181-1.279.099-2.263.689-2.853 1.771-.59 1.082-.59 2.066 0 3.148.59 1.083 1.771 2.165 3.64 3.149 1.574.885 2.952 1.279 4.231 1.279s2.164-.591 2.755-1.673c.59-1.082.59-2.164.098-3.345zm-14.168 13.184c-.787.098-1.869.098-3.148.098h-2.066c-.394 0-.689.099-.885.295l-.591.492-.787-.492 1.181-1.967c.197-.197.492-.394 1.18-.394h2.657c1.279.099 2.263.099 3.05 0 .689 0 1.18-.197 1.377-.59l.591-.984-4.526-2.853-1.082 1.279-.788-.492 2.755-4.329.787.492-.688 1.377 9.838 6.199.984-1.181.787.492-2.656 4.23-.787-.492.59-1.475-4.526-2.854-.885 1.378 2.558 6.1.984-1.181.787.492-2.46 3.936-.787-.492.59-1.378-2.459-6.296c-.099.295-.787.491-1.575.59zm-8.658 3.542a4.912 4.912 0 013.149-.197c1.18.197 2.263.787 3.443 1.574 1.181.787 2.066 1.771 2.657 2.853.59 1.083.885 2.165.787 3.247-.098 1.082-.394 2.165-1.082 3.149-1.083 1.574-2.46 2.459-4.034 2.656-1.574.197-3.247-.394-5.116-1.574-1.181-.787-2.066-1.771-2.657-2.853-.59-1.083-.885-2.165-.787-3.346 0-1.18.394-2.164 1.082-3.148.689-1.279 1.575-1.968 2.558-2.361zm8.56 6.592c-.492-1.181-1.574-2.362-3.247-3.444-1.574-1.082-2.951-1.574-4.23-1.672-1.279-.099-2.263.393-2.952 1.377-.689.984-.787 2.066-.295 3.247.492 1.18 1.574 2.361 3.247 3.542 1.574 1.082 2.951 1.574 4.23 1.672 1.279 0 2.263-.492 2.952-1.476.689-.983.787-2.066.295-3.246zm-6.1 10.822l1.082-1.082.787.59-1.475 1.968c-.295.295-.591.787-.886 1.377-.295.492-.59.886-.787 1.083-1.082 1.377-1.968 2.164-2.853 2.459-.886.295-1.771.099-2.558-.492-.689-.492-1.181-1.18-1.378-1.967-.196-.787-.098-1.575.296-2.362-.689.984-1.476 1.575-2.362 1.771-.885.197-1.771 0-2.558-.59-.984-.787-1.574-1.771-1.672-2.952-.099-1.18.492-2.656 1.672-4.23.295-.394.591-.689.787-.984.591-.787.984-1.181 1.083-1.377l1.475-1.968.689.59-.787 1.378 9.445 6.788zm-11.806-3.935c-.787.984-1.082 1.869-.984 2.656.098.787.492 1.476 1.279 2.066.787.591 1.476.787 2.164.689.689-.098 1.279-.59 1.968-1.476.787-.984 1.279-1.672 1.378-1.968l-4.428-3.345c-.393 0-.787.492-1.377 1.378zm6.001 3.345l-.59.787c-.492.689-.689 1.377-.59 2.066.098.689.492 1.279 1.279 1.771.688.492 1.377.689 1.967.59.591-.098 1.181-.59 1.87-1.475.295-.394.492-.788.787-1.181l.197-.295-4.133-3.149c-.295.197-.492.492-.787.886z"/><circle cx="50.409" cy="159.067" r="2" transform="rotate(-15 50.409 159.067)"/><circle cx="434.491" cy="29.619" r="2" transform="rotate(-15 434.491 29.619)"/></g></svg>